<svg xmlns="http://www.w3.org/2000/svg" width="61.784" height="72.29" viewBox="0 0 61.784 72.29">
  <g id="Group_28" data-name="Group 28" transform="translate(-73.73 -12.434)">
    <path id="Path_6" data-name="Path 6" d="M123.959,20.179a83.065,83.065,0,0,1-1.639,10.635c-.016-.1-.03-.209-.047-.314a42.76,42.76,0,0,0-5.96-16.2c-2.657-4.224-7.544-.477-5.211,3.2a36.239,36.239,0,0,1,5.109,13.93q.151.957.26,1.9c-.492-.981-1.026-1.968-1.606-2.952A44.44,44.44,0,0,0,102.74,16.7c-3.406-2.469-6.829,2.521-3.389,5.126a38.117,38.117,0,0,1,7.2,7.14c-.274-.058-.55-.112-.829-.157a18.842,18.842,0,0,0-17.847,6.965c-4.019,5.109,1.4,8.107,4.8,3.764a12.717,12.717,0,0,1,21.231,13.829l-.011.017h0a12.726,12.726,0,0,1-23.878-4.8c-.391-4.172-6.692-4.172-5.994,1.226a18.821,18.821,0,0,0,33.8,8.733l0,0c2.384-3.082,6.386-11.512,8.906-20.215a92.626,92.626,0,0,0,3.236-16.792C130.465,16.4,124.3,16.109,123.959,20.179Z" fill="#009a91"/>
    <g id="Group_26" data-name="Group 26">
      <path id="Path_7" data-name="Path 7" d="M79.017,73.358a1.9,1.9,0,0,1-.638-.221,2.919,2.919,0,0,0-1.214-.27c-.675,0-1.313.209-1.325.773-.012.515.478.871,1.325,1.226l.736.307a2.57,2.57,0,0,1,1.9,2.441c-.025,1.5-1.067,2.318-2.968,2.318a5.2,5.2,0,0,1-2.356-.515c-.588-.295-.748-.552-.748-.846a.749.749,0,0,1,.748-.736,1.953,1.953,0,0,1,.761.27,3.3,3.3,0,0,0,1.46.331c.785,0,1.435-.246,1.435-.773,0-.393-.368-.761-1.092-1.067l-.711-.294c-1.178-.491-2.184-1.215-2.171-2.589.012-1.19,1.042-2.342,3.017-2.342a4.116,4.116,0,0,1,2,.49c.344.184.589.4.589.761A.748.748,0,0,1,79.017,73.358Z" fill="#1d3843"/>
      <path id="Path_8" data-name="Path 8" d="M83.531,72.18a.8.8,0,1,1,1.594,0v4.256c0,1.288.565,2.012,1.767,2.012s1.778-.7,1.778-2.012V72.18a.8.8,0,1,1,1.6,0v4.7c0,2.036-1.448,3.054-3.373,3.054-1.951,0-3.361-1.018-3.361-3.054Z" fill="#1d3843"/>
      <path id="Path_9" data-name="Path 9" d="M101.93,72.18v6.942a.8.8,0,0,1-.785.81.761.761,0,0,1-.613-.331l-4.195-5.09c.024,1.545-.013,3.078-.013,4.611a.8.8,0,1,1-1.594,0V72.18a.791.791,0,0,1,1.435-.478l4.182,5.164c-.061-1.57-.012-3.128-.012-4.686a.8.8,0,1,1,1.6,0Z" fill="#1d3843"/>
      <path id="Path_10" data-name="Path 10" d="M112.932,71.972a.651.651,0,0,1-.049.233l-2.894,7.237c-.123.294-.27.49-.6.49s-.466-.2-.588-.49l-2.9-7.237a.651.651,0,0,1-.049-.233.488.488,0,0,1,.49-.479.483.483,0,0,1,.454.307l2.6,6.6,2.6-6.575a.5.5,0,0,1,.479-.331A.466.466,0,0,1,112.932,71.972Z" fill="#1d3843"/>
      <path id="Path_11" data-name="Path 11" d="M115.483,71.984v7.458a.453.453,0,0,1-.478.49.448.448,0,0,1-.478-.49V71.984a.448.448,0,0,1,.478-.491A.454.454,0,0,1,115.483,71.984Z" fill="#1d3843"/>
      <path id="Path_12" data-name="Path 12" d="M122.9,79.38a.441.441,0,0,1-.417.429h-4.011a.476.476,0,0,1-.528-.539l-.012-7.114a.477.477,0,0,1,.527-.54h4.011a.436.436,0,0,1,0,.871h-3.581v2.76h3.189a.435.435,0,0,1,0,.87h-3.189v2.822h3.594A.444.444,0,0,1,122.9,79.38Z" fill="#1d3843"/>
      <path id="Path_13" data-name="Path 13" d="M135.514,71.972a.74.74,0,0,1-.049.245l-2.441,7.225a.6.6,0,0,1-.6.49.592.592,0,0,1-.589-.49l-2.171-6.207-2.048,6.207a.605.605,0,0,1-.6.49.591.591,0,0,1-.589-.49l-2.551-7.225a.641.641,0,0,1-.049-.233.5.5,0,0,1,.515-.491.485.485,0,0,1,.466.344l2.257,6.5,2.109-6.464a.548.548,0,0,1,1.043,0l2.245,6.464,2.11-6.476a.5.5,0,0,1,.478-.368A.469.469,0,0,1,135.514,71.972Z" fill="#1d3843"/>
    </g>
    <g id="Group_27" data-name="Group 27">
      <path id="Path_14" data-name="Path 14" d="M76.313,82.246v2.219a.255.255,0,1,1-.509,0V83.6H74.592v.862a.255.255,0,1,1-.509,0V82.246a.255.255,0,1,1,.509,0v.882H75.8v-.882a.255.255,0,1,1,.509,0Z" fill="#1d3843"/>
      <path id="Path_15" data-name="Path 15" d="M80.345,84.449a.239.239,0,0,1-.227.235H78.844a.258.258,0,0,1-.259-.258v-2.14a.258.258,0,0,1,.259-.259h1.274a.237.237,0,0,1,0,.474H79.1v.627h.9a.238.238,0,0,1,0,.475h-.9v.607h1.023A.241.241,0,0,1,80.345,84.449Z" fill="#1d3843"/>
      <path id="Path_16" data-name="Path 16" d="M84.593,84.469a.253.253,0,0,1-.251.251.257.257,0,0,1-.239-.161l-.216-.537H82.856l-.223.549a.256.256,0,0,1-.49-.1.293.293,0,0,1,.019-.11l.9-2.179a.327.327,0,0,1,.6,0l.913,2.187A.252.252,0,0,1,84.593,84.469Zm-.9-.922-.325-.795-.322.795Z" fill="#1d3843"/>
      <path id="Path_17" data-name="Path 17" d="M88.377,84.449a.239.239,0,0,1-.227.235H86.876a.258.258,0,0,1-.259-.258v-2.18a.255.255,0,1,1,.51,0V84.21H88.15A.24.24,0,0,1,88.377,84.449Z" fill="#1d3843"/>
      <path id="Path_18" data-name="Path 18" d="M91.779,82.262a.241.241,0,0,1-.228.239H91v1.964a.255.255,0,1,1-.51,0V82.5h-.556a.237.237,0,0,1,0-.474h1.622A.239.239,0,0,1,91.779,82.262Z" fill="#1d3843"/>
      <path id="Path_19" data-name="Path 19" d="M96.007,82.246v2.219a.255.255,0,1,1-.51,0V83.6H94.286v.862a.255.255,0,1,1-.51,0V82.246a.255.255,0,1,1,.51,0v.882H95.5v-.882a.255.255,0,1,1,.51,0Z" fill="#1d3843"/>
      <path id="Path_20" data-name="Path 20" d="M100.113,82.391l-.772,1.055v1.019a.255.255,0,1,1-.51,0v-.984l-.78-1.09A.267.267,0,0,1,98,82.238a.256.256,0,0,1,.263-.251.266.266,0,0,1,.215.122l.608.882.6-.878a.274.274,0,0,1,.22-.126.253.253,0,0,1,.255.247A.24.24,0,0,1,100.113,82.391Z" fill="#1d3843"/>
      <path id="Path_21" data-name="Path 21" d="M104.873,83.355a1.2,1.2,0,0,1,1.25-1.368,1.217,1.217,0,0,1,.769.216.232.232,0,0,1-.142.412.248.248,0,0,1-.121-.032,1.019,1.019,0,0,0-.521-.121c-.459,0-.7.313-.7.893s.278.894.69.894a1.047,1.047,0,0,0,.529-.121.252.252,0,0,1,.122-.032.232.232,0,0,1,.141.412,1.24,1.24,0,0,1-.776.216C105.261,84.724,104.873,84.147,104.873,83.355Z" fill="#1d3843"/>
      <path id="Path_22" data-name="Path 22" d="M110.783,84.449a.239.239,0,0,1-.228.235h-1.274a.257.257,0,0,1-.258-.258v-2.18a.255.255,0,1,1,.509,0V84.21h1.023A.241.241,0,0,1,110.783,84.449Z" fill="#1d3843"/>
      <path id="Path_23" data-name="Path 23" d="M114.532,84.449a.239.239,0,0,1-.227.235h-1.274a.258.258,0,0,1-.259-.258v-2.14a.258.258,0,0,1,.259-.259h1.274a.237.237,0,0,1,0,.474h-1.023v.627h.9a.238.238,0,0,1,0,.475h-.9v.607h1.023A.241.241,0,0,1,114.532,84.449Z" fill="#1d3843"/>
      <path id="Path_24" data-name="Path 24" d="M118.78,84.469a.253.253,0,0,1-.251.251.257.257,0,0,1-.239-.161l-.216-.537h-1.031l-.223.549a.251.251,0,0,1-.235.153.255.255,0,0,1-.255-.255.276.276,0,0,1,.02-.11l.9-2.179a.327.327,0,0,1,.6,0l.913,2.187A.252.252,0,0,1,118.78,84.469Zm-.9-.922-.325-.795-.321.795Z" fill="#1d3843"/>
      <path id="Path_25" data-name="Path 25" d="M123.106,82.246v2.219a.257.257,0,0,1-.251.259.246.246,0,0,1-.2-.106l-1.341-1.627c.008.494,0,.984,0,1.474a.255.255,0,1,1-.51,0V82.246a.259.259,0,0,1,.259-.259.256.256,0,0,1,.2.106l1.337,1.651c-.019-.5,0-1,0-1.5a.255.255,0,1,1,.51,0Z" fill="#1d3843"/>
      <path id="Path_26" data-name="Path 26" d="M125.887,82.246v2.219a.255.255,0,1,1-.51,0V82.246a.255.255,0,1,1,.51,0Z" fill="#1d3843"/>
      <path id="Path_27" data-name="Path 27" d="M130.46,82.246v2.219a.257.257,0,0,1-.251.259.243.243,0,0,1-.195-.106l-1.341-1.627c.008.494,0,.984,0,1.474a.255.255,0,1,1-.51,0V82.246a.253.253,0,0,1,.459-.153l1.337,1.651c-.02-.5,0-1,0-1.5a.255.255,0,1,1,.509,0Z" fill="#1d3843"/>
      <path id="Path_28" data-name="Path 28" d="M134.908,83.461v.91a1.616,1.616,0,0,1-1.086.349c-.851,0-1.239-.573-1.239-1.365a1.213,1.213,0,0,1,1.29-1.368,1.417,1.417,0,0,1,.846.216.226.226,0,0,1,.087.18.229.229,0,0,1-.228.232.248.248,0,0,1-.121-.032,1.275,1.275,0,0,0-.6-.121c-.5,0-.741.313-.741.893s.279.89.69.89a1.319,1.319,0,0,0,.6-.125v-.463h-.627a.237.237,0,0,1,0-.474h.835A.254.254,0,0,1,134.908,83.461Z" fill="#1d3843"/>
    </g>
  </g>
</svg>
