<svg xmlns="http://www.w3.org/2000/svg" width="44.023" height="27.934" viewBox="0 0 44.023 27.934">
  <g id="Group_64" data-name="Group 64" transform="translate(-511.13 -3580.878)">
    <path id="Path_88" data-name="Path 88" d="M523.088,3581.291a8.82,8.82,0,0,0-2.683-.413h0a9.165,9.165,0,0,0-9.231,7.933,8.331,8.331,0,0,0,2.164,6.486,9.54,9.54,0,0,0,6.747,3.114,12.781,12.781,0,0,1-6.11,7.021,1.8,1.8,0,0,0,.843,3.38h.061l.123,0,.122,0c.29-.012.566-.03.842-.054a16.649,16.649,0,0,0,12.8-7.71,15.749,15.749,0,0,0,2.209-7.34C531.258,3587.685,528.235,3582.931,523.088,3581.291Z" fill="#e76554"/>
    <path id="Path_89" data-name="Path 89" d="M547.246,3581.291a8.819,8.819,0,0,0-2.683-.413h0a9.165,9.165,0,0,0-9.231,7.933,8.335,8.335,0,0,0,2.164,6.486,9.54,9.54,0,0,0,6.747,3.114,12.782,12.782,0,0,1-6.11,7.021,1.8,1.8,0,0,0,.843,3.38h.061l.123,0,.122,0c.29-.012.566-.03.842-.054a16.649,16.649,0,0,0,12.8-7.71,15.75,15.75,0,0,0,2.209-7.34C555.416,3587.685,552.393,3582.931,547.246,3581.291Z" fill="#e76554"/>
  </g>
</svg>
