<svg xmlns="http://www.w3.org/2000/svg" width="44.023" height="27.934" viewBox="0 0 44.023 27.934">
  <g id="Group_60" data-name="Group 60" transform="translate(-239.678 -3580.878)">
    <path id="Path_78" data-name="Path 78" d="M251.635,3581.291a8.82,8.82,0,0,0-2.683-.413h0a9.165,9.165,0,0,0-9.232,7.933,8.335,8.335,0,0,0,2.164,6.486,9.54,9.54,0,0,0,6.747,3.114,12.782,12.782,0,0,1-6.11,7.021,1.8,1.8,0,0,0,.843,3.38h.062l.122,0,.122,0c.29-.012.566-.03.842-.054a16.649,16.649,0,0,0,12.8-7.71,15.749,15.749,0,0,0,2.209-7.34C259.8,3587.685,256.782,3582.931,251.635,3581.291Z" fill="#e76554"/>
    <path id="Path_79" data-name="Path 79" d="M275.793,3581.291a8.82,8.82,0,0,0-2.683-.413h0a9.163,9.163,0,0,0-9.231,7.933,8.33,8.33,0,0,0,2.163,6.486,9.542,9.542,0,0,0,6.747,3.114,12.782,12.782,0,0,1-6.11,7.021,1.8,1.8,0,0,0,.843,3.38h.062l.122,0,.122,0c.29-.012.567-.03.842-.054a16.649,16.649,0,0,0,12.8-7.71,15.749,15.749,0,0,0,2.209-7.34C283.964,3587.685,280.941,3582.931,275.793,3581.291Z" fill="#e76554"/>
  </g>
</svg>
